<?xml version="1.0" encoding="UTF-8" standalone="no"?>
<!-- Created with Inkscape (http://www.inkscape.org/) -->

<svg
   width="210mm"
   height="297mm"
   viewBox="0 0 210 297"
   version="1.1"
   id="svg5"
   inkscape:version="1.1.1 (3bf5ae0d25, 2021-09-20)"
   sodipodi:docname="logo doida.svg"
   xmlns:inkscape="http://www.inkscape.org/namespaces/inkscape"
   xmlns:sodipodi="http://sodipodi.sourceforge.net/DTD/sodipodi-0.dtd"
   xmlns="http://www.w3.org/2000/svg"
   xmlns:svg="http://www.w3.org/2000/svg">
  <sodipodi:namedview
     id="namedview7"
     pagecolor="#ffffff"
     bordercolor="#666666"
     borderopacity="1.0"
     inkscape:pageshadow="2"
     inkscape:pageopacity="0.0"
     inkscape:pagecheckerboard="0"
     inkscape:document-units="mm"
     showgrid="false"
     inkscape:zoom="0.46324355"
     inkscape:cx="396.11993"
     inkscape:cy="313.0103"
     inkscape:window-width="1366"
     inkscape:window-height="706"
     inkscape:window-x="-8"
     inkscape:window-y="-8"
     inkscape:window-maximized="1"
     inkscape:current-layer="layer1" />
  <defs
     id="defs2">
    <inkscape:perspective
       sodipodi:type="inkscape:persp3d"
       inkscape:vp_x="8.2268171 : 139.55979 : 1"
       inkscape:vp_y="0 : 1000 : 0"
       inkscape:vp_z="218.22682 : 139.55979 : 1"
       inkscape:persp3d-origin="113.22682 : 90.059789 : 1"
       id="perspective244" />
    <inkscape:perspective
       sodipodi:type="inkscape:persp3d"
       inkscape:vp_x="0 : 148.5 : 1"
       inkscape:vp_y="0 : 1000 : 0"
       inkscape:vp_z="210 : 148.5 : 1"
       inkscape:persp3d-origin="105 : 99 : 1"
       id="perspective78" />
  </defs>
  <g
     inkscape:label="Camada 1"
     inkscape:groupmode="layer"
     id="layer1">
    <g
       sodipodi:type="inkscape:box3d"
       id="g80"
       style="fill-rule:evenodd;stroke:none;stroke-linejoin:round"
       inkscape:perspectiveID="#perspective78"
       inkscape:corner0="1.5892731 : 0.21809157 : 0 : 1"
       inkscape:corner7="0.22558925 : 0.14960001 : 0.25 : 1">
      <path
         sodipodi:type="inkscape:box3dside"
         id="path92"
         style="fill:#e9e9ff;fill-rule:evenodd;stroke:none;stroke-linejoin:round"
         inkscape:box3dsidetype="11"
         d="M 55.471946,89.121579 106.73702,34.246281 V 80.662693 L 55.471946,113.2445 Z"
         points="106.73702,34.246281 106.73702,80.662693 55.471946,113.2445 55.471946,89.121579 " />
      <path
         sodipodi:type="inkscape:box3dside"
         id="path82"
         style="fill:#353564;fill-rule:evenodd;stroke:none;stroke-linejoin:round"
         inkscape:box3dsidetype="6"
         d="M 40.551923,83.388462 V 109.8405 l 14.920023,3.404 V 89.121579 Z"
         points="40.551923,109.8405 55.471946,113.2445 55.471946,89.121579 40.551923,83.388462 " />
      <path
         sodipodi:type="inkscape:box3dside"
         id="path84"
         style="fill:#4d4d9f;fill-rule:evenodd;stroke:none;stroke-linejoin:round"
         inkscape:box3dsidetype="5"
         d="M 40.551923,83.388462 85.673077,10.940406 106.73702,34.246281 55.471946,89.121579 Z"
         points="85.673077,10.940406 106.73702,34.246281 55.471946,89.121579 40.551923,83.388462 " />
      <path
         sodipodi:type="inkscape:box3dside"
         id="path90"
         style="fill:#afafde;fill-rule:evenodd;stroke:none;stroke-linejoin:round"
         inkscape:box3dsidetype="13"
         d="M 40.551923,109.8405 85.673077,66.825 106.73702,80.662693 55.471946,113.2445 Z"
         points="85.673077,66.825 106.73702,80.662693 55.471946,113.2445 40.551923,109.8405 " />
      <path
         sodipodi:type="inkscape:box3dside"
         id="path88"
         style="fill:#d7d7ff;fill-rule:evenodd;stroke:none;stroke-linejoin:round"
         inkscape:box3dsidetype="14"
         d="M 85.673077,10.940406 V 66.825 L 106.73702,80.662693 V 34.246281 Z"
         points="85.673077,66.825 106.73702,80.662693 106.73702,34.246281 85.673077,10.940406 " />
      <path
         sodipodi:type="inkscape:box3dside"
         id="path86"
         style="fill:#8686bf;fill-rule:evenodd;stroke:none;stroke-linejoin:round"
         inkscape:box3dsidetype="3"
         d="M 40.551923,83.388462 85.673077,10.940406 V 66.825 l -45.121154,43.0155 z"
         points="85.673077,10.940406 85.673077,66.825 40.551923,109.8405 40.551923,83.388462 " />
    </g>
    <g
       sodipodi:type="inkscape:box3d"
       id="g94"
       style="fill-rule:evenodd;stroke:none;stroke-linejoin:round"
       inkscape:perspectiveID="#perspective244"
       inkscape:corner0="3.3771045 : 0.48200005 : 0 : 1"
       inkscape:corner7="1.4843025 : 0.0069324407 : 0.25 : 1">
      <path
         sodipodi:type="inkscape:box3dside"
         id="path106"
         style="fill:#e9e9ff;fill-rule:evenodd;stroke:none;stroke-linejoin:round"
         inkscape:box3dsidetype="11"
         d="M 42.265384,63.969224 65.828347,-0.73542199 V 173.00819 l -23.562963,-6.36837 z"
         points="65.828347,-0.73542199 65.828347,173.00819 42.265384,166.63982 42.265384,63.969224 " />
      <path
         sodipodi:type="inkscape:box3dside"
         id="path96"
         style="fill:#353564;fill-rule:evenodd;stroke:none;stroke-linejoin:round"
         inkscape:box3dsidetype="6"
         d="M 32.215279,58.630593 V 167.16526 l 10.050105,-0.52544 V 63.969224 Z"
         points="32.215279,167.16526 42.265384,166.63982 42.265384,63.969224 32.215279,58.630593 " />
      <path
         sodipodi:type="inkscape:box3dside"
         id="path104"
         style="fill:#afafde;fill-rule:evenodd;stroke:none;stroke-linejoin:round"
         inkscape:box3dsidetype="13"
         d="m 32.215279,167.16526 18.276925,7.40957 15.336143,-1.56664 -23.562963,-6.36837 z"
         points="50.492204,174.57483 65.828347,173.00819 42.265384,166.63982 32.215279,167.16526 " />
      <path
         sodipodi:type="inkscape:box3dside"
         id="path98"
         style="fill:#4d4d9f;fill-rule:evenodd;stroke:none;stroke-linejoin:round"
         inkscape:box3dsidetype="5"
         d="M 32.215279,58.630593 50.492204,-16.652932 65.828347,-0.73542199 42.265384,63.969224 Z"
         points="50.492204,-16.652932 65.828347,-0.73542199 42.265384,63.969224 32.215279,58.630593 " />
      <path
         sodipodi:type="inkscape:box3dside"
         id="path102"
         style="fill:#d7d7ff;fill-rule:evenodd;stroke:none;stroke-linejoin:round"
         inkscape:box3dsidetype="14"
         d="M 50.492204,-16.652932 V 174.57483 l 15.336143,-1.56664 V -0.73542199 Z"
         points="50.492204,174.57483 65.828347,173.00819 65.828347,-0.73542199 50.492204,-16.652932 " />
      <path
         sodipodi:type="inkscape:box3dside"
         id="path100"
         style="fill:#8686bf;fill-rule:evenodd;stroke:none;stroke-linejoin:round"
         inkscape:box3dsidetype="3"
         d="M 32.215279,58.630593 50.492204,-16.652932 V 174.57483 l -18.276925,-7.40957 z"
         points="50.492204,-16.652932 50.492204,174.57483 32.215279,167.16526 32.215279,58.630593 " />
    </g>
    <g
       sodipodi:type="inkscape:box3d"
       id="g108"
       style="fill-rule:evenodd;stroke:none;stroke-linejoin:round"
       inkscape:perspectiveID="#perspective78"
       inkscape:corner0="4.7449496 : 0.10856253 : 0 : 1"
       inkscape:corner7="-0.027310116 : 0.048388893 : 0.25 : 1">
      <path
         sodipodi:type="inkscape:box3dside"
         id="path120"
         style="fill:#e9e9ff;fill-rule:evenodd;stroke:none;stroke-linejoin:round"
         inkscape:box3dsidetype="11"
         d="M 26.272115,138.64796 128.81435,100.1946 v 49.21414 l -102.542235,-0.7234 z"
         points="128.81435,100.1946 128.81435,149.40874 26.272115,148.68534 26.272115,138.64796 " />
      <path
         sodipodi:type="inkscape:box3dside"
         id="path110"
         style="fill:#353564;fill-rule:evenodd;stroke:none;stroke-linejoin:round"
         inkscape:box3dsidetype="6"
         d="m 18.276923,138.21923 v 10.47418 l 7.995192,-0.008 v -10.03738 z"
         points="18.276923,148.69341 26.272115,148.68534 26.272115,138.64796 18.276923,138.21923 " />
      <path
         sodipodi:type="inkscape:box3dside"
         id="path118"
         style="fill:#afafde;fill-rule:evenodd;stroke:none;stroke-linejoin:round"
         inkscape:box3dsidetype="13"
         d="m 18.276923,148.69341 89.671157,0.9489 20.86627,-0.23357 -102.542235,-0.7234 z"
         points="107.94808,149.64231 128.81435,149.40874 26.272115,148.68534 18.276923,148.69341 " />
      <path
         sodipodi:type="inkscape:box3dside"
         id="path112"
         style="fill:#4d4d9f;fill-rule:evenodd;stroke:none;stroke-linejoin:round"
         inkscape:box3dsidetype="5"
         d="M 18.276923,138.21923 107.94808,87.779183 128.81435,100.1946 26.272115,138.64796 Z"
         points="107.94808,87.779183 128.81435,100.1946 26.272115,138.64796 18.276923,138.21923 " />
      <path
         sodipodi:type="inkscape:box3dside"
         id="path116"
         style="fill:#d7d7ff;fill-rule:evenodd;stroke:none;stroke-linejoin:round"
         inkscape:box3dsidetype="14"
         d="m 107.94808,87.779183 v 61.863127 l 20.86627,-0.23357 V 100.1946 Z"
         points="107.94808,149.64231 128.81435,149.40874 128.81435,100.1946 107.94808,87.779183 " />
      <path
         sodipodi:type="inkscape:box3dside"
         id="path114"
         style="fill:#8686bf;fill-rule:evenodd;stroke:none;stroke-linejoin:round"
         inkscape:box3dsidetype="3"
         d="M 18.276923,138.21923 107.94808,87.779183 v 61.863127 l -89.671157,-0.9489 z"
         points="107.94808,87.779183 107.94808,149.64231 18.276923,148.69341 18.276923,138.21923 " />
    </g>
    <g
       sodipodi:type="inkscape:box3d"
       id="g122"
       style="fill-rule:evenodd;stroke:none;stroke-linejoin:round"
       inkscape:perspectiveID="#perspective78"
       inkscape:corner0="1.4843026 : 0.25950004 : 0 : 1"
       inkscape:corner7="0.89284873 : 0.11623334 : 0.25 : 1">
      <path
         sodipodi:type="inkscape:box3dside"
         id="path134"
         style="fill:#e9e9ff;fill-rule:evenodd;stroke:none;stroke-linejoin:round"
         inkscape:box3dsidetype="11"
         d="M 57.601526,71.697958 73.50029,50.499604 v 66.858056 l -15.898764,6.73636 z"
         points="73.50029,50.499604 73.50029,117.35766 57.601526,124.09402 57.601526,71.697958 " />
      <path
         sodipodi:type="inkscape:box3dside"
         id="path124"
         style="fill:#353564;fill-rule:evenodd;stroke:none;stroke-linejoin:round"
         inkscape:box3dsidetype="6"
         d="M 42.265384,63.969225 V 121.638 l 15.336142,2.45602 V 71.697958 Z"
         points="42.265384,121.638 57.601526,124.09402 57.601526,71.697958 42.265384,63.969225 " />
      <path
         sodipodi:type="inkscape:box3dside"
         id="path126"
         style="fill:#4d4d9f;fill-rule:evenodd;stroke:none;stroke-linejoin:round"
         inkscape:box3dsidetype="5"
         d="M 42.265384,63.969225 55.471946,37.556097 73.50029,50.499604 57.601526,71.697958 Z"
         points="55.471946,37.556097 73.50029,50.499604 57.601526,71.697958 42.265384,63.969225 " />
      <path
         sodipodi:type="inkscape:box3dside"
         id="path132"
         style="fill:#afafde;fill-rule:evenodd;stroke:none;stroke-linejoin:round"
         inkscape:box3dsidetype="13"
         d="m 42.265384,121.638 13.206562,-8.3935 18.028344,4.11316 -15.898764,6.73636 z"
         points="55.471946,113.2445 73.50029,117.35766 57.601526,124.09402 42.265384,121.638 " />
      <path
         sodipodi:type="inkscape:box3dside"
         id="path130"
         style="fill:#d7d7ff;fill-rule:evenodd;stroke:none;stroke-linejoin:round"
         inkscape:box3dsidetype="14"
         d="M 55.471946,37.556097 V 113.2445 l 18.028344,4.11316 V 50.499604 Z"
         points="55.471946,113.2445 73.50029,117.35766 73.50029,50.499604 55.471946,37.556097 " />
      <path
         sodipodi:type="inkscape:box3dside"
         id="path128"
         style="fill:#8686bf;fill-rule:evenodd;stroke:none;stroke-linejoin:round"
         inkscape:box3dsidetype="3"
         d="M 42.265384,63.969225 55.471946,37.556097 V 113.2445 l -13.206562,8.3935 z"
         points="55.471946,37.556097 55.471946,113.2445 42.265384,121.638 42.265384,63.969225 " />
    </g>
    <g
       sodipodi:type="inkscape:box3d"
       id="g136"
       style="fill-rule:evenodd;stroke:none;stroke-linejoin:round"
       inkscape:perspectiveID="#perspective78"
       inkscape:corner0="0.42856582 : 0.14612235 : 0 : 1"
       inkscape:corner7="-0.022136234 : 0.093988893 : 0.25 : 1">
      <path
         sodipodi:type="inkscape:box3dside"
         id="path148"
         style="fill:#e9e9ff;fill-rule:evenodd;stroke:none;stroke-linejoin:round"
         inkscape:box3dsidetype="11"
         d="M 93.830103,90.937562 128.27156,69.808581 v 42.458669 l -34.441457,9.72865 z"
         points="128.27156,69.808581 128.27156,112.26725 93.830103,121.9959 93.830103,90.937562 " />
      <path
         sodipodi:type="inkscape:box3dside"
         id="path138"
         style="fill:#353564;fill-rule:evenodd;stroke:none;stroke-linejoin:round"
         inkscape:box3dsidetype="6"
         d="m 73.50029,80.864096 v 36.493564 l 20.329813,4.63824 V 90.937562 Z"
         points="73.50029,117.35766 93.830103,121.9959 93.830103,90.937562 73.50029,80.864096 " />
      <path
         sodipodi:type="inkscape:box3dside"
         id="path140"
         style="fill:#4d4d9f;fill-rule:evenodd;stroke:none;stroke-linejoin:round"
         inkscape:box3dsidetype="5"
         d="M 73.50029,80.864096 107.37692,49.690384 128.27156,69.808581 93.830103,90.937562 Z"
         points="107.37692,49.690384 128.27156,69.808581 93.830103,90.937562 73.50029,80.864096 " />
      <path
         sodipodi:type="inkscape:box3dside"
         id="path146"
         style="fill:#afafde;fill-rule:evenodd;stroke:none;stroke-linejoin:round"
         inkscape:box3dsidetype="13"
         d="m 73.50029,117.35766 33.87663,-14.35366 20.89464,9.26325 -34.441457,9.72865 z"
         points="107.37692,103.004 128.27156,112.26725 93.830103,121.9959 73.50029,117.35766 " />
      <path
         sodipodi:type="inkscape:box3dside"
         id="path144"
         style="fill:#d7d7ff;fill-rule:evenodd;stroke:none;stroke-linejoin:round"
         inkscape:box3dsidetype="14"
         d="M 107.37692,49.690384 V 103.004 l 20.89464,9.26325 V 69.808581 Z"
         points="107.37692,103.004 128.27156,112.26725 128.27156,69.808581 107.37692,49.690384 " />
      <path
         sodipodi:type="inkscape:box3dside"
         id="path142"
         style="fill:#8686bf;fill-rule:evenodd;stroke:none;stroke-linejoin:round"
         inkscape:box3dsidetype="3"
         d="M 73.50029,80.864096 107.37692,49.690384 V 103.004 l -33.87663,14.35366 z"
         points="107.37692,49.690384 107.37692,103.004 73.50029,117.35766 73.50029,80.864096 " />
    </g>
    <g
       sodipodi:type="inkscape:box3d"
       id="g150"
       style="fill-rule:evenodd;stroke:none;stroke-linejoin:round"
       inkscape:perspectiveID="#perspective78"
       inkscape:corner0="0.42856582 : 0.11222728 : 0 : 1"
       inkscape:corner7="-0.40312212 : 0.093988894 : 0.25 : 1">
      <path
         sodipodi:type="inkscape:box3dside"
         id="path162"
         style="fill:#e9e9ff;fill-rule:evenodd;stroke:none;stroke-linejoin:round"
         inkscape:box3dsidetype="11"
         d="M 93.830103,111.13044 185.97723,74.431145 V 95.967173 L 93.830103,121.99589 Z"
         points="185.97723,74.431145 185.97723,95.967173 93.830103,121.99589 93.830103,111.13044 " />
      <path
         sodipodi:type="inkscape:box3dside"
         id="path152"
         style="fill:#353564;fill-rule:evenodd;stroke:none;stroke-linejoin:round"
         inkscape:box3dsidetype="6"
         d="m 73.50029,104.59074 v 12.76692 l 20.329813,4.63823 v -10.86545 z"
         points="73.50029,117.35766 93.830103,121.99589 93.830103,111.13044 73.50029,104.59074 " />
      <path
         sodipodi:type="inkscape:box3dside"
         id="path154"
         style="fill:#4d4d9f;fill-rule:evenodd;stroke:none;stroke-linejoin:round"
         inkscape:box3dsidetype="5"
         d="M 73.50029,104.59074 175.91539,43.407689 185.97723,74.431145 93.830103,111.13044 Z"
         points="175.91539,43.407689 185.97723,74.431145 93.830103,111.13044 73.50029,104.59074 " />
      <path
         sodipodi:type="inkscape:box3dside"
         id="path160"
         style="fill:#afafde;fill-rule:evenodd;stroke:none;stroke-linejoin:round"
         inkscape:box3dsidetype="13"
         d="M 73.50029,117.35766 175.91539,73.963999 185.97723,95.967173 93.830103,121.99589 Z"
         points="175.91539,73.963999 185.97723,95.967173 93.830103,121.99589 73.50029,117.35766 " />
      <path
         sodipodi:type="inkscape:box3dside"
         id="path158"
         style="fill:#d7d7ff;fill-rule:evenodd;stroke:none;stroke-linejoin:round"
         inkscape:box3dsidetype="14"
         d="m 175.91539,43.407689 v 30.55631 l 10.06184,22.003174 V 74.431145 Z"
         points="175.91539,73.963999 185.97723,95.967173 185.97723,74.431145 175.91539,43.407689 " />
      <path
         sodipodi:type="inkscape:box3dside"
         id="path156"
         style="fill:#8686bf;fill-rule:evenodd;stroke:none;stroke-linejoin:round"
         inkscape:box3dsidetype="3"
         d="m 73.50029,104.59074 102.4151,-61.183051 v 30.55631 L 73.50029,117.35766 Z"
         points="175.91539,43.407689 175.91539,73.963999 73.50029,117.35766 73.50029,104.59074 " />
    </g>
    <g
       sodipodi:type="inkscape:box3d"
       id="g316"
       style="fill-rule:evenodd;stroke:none;stroke-linejoin:round"
       inkscape:perspectiveID="#perspective78"
       inkscape:corner0="2.9966331 : 0.1139737 : 0 : 1"
       inkscape:corner7="2.2252349 : 0.08887502 : 0.25 : 1">
      <path
         sodipodi:type="inkscape:box3dside"
         id="path328"
         style="fill:#e9e9ff;fill-rule:evenodd;stroke:none;stroke-linejoin:round"
         inkscape:box3dsidetype="11"
         d="m 37.088206,133.31769 8.232473,-3.37001 v 7.22215 l -8.232473,2.05812 z"
         points="45.320679,129.94768 45.320679,137.16983 37.088206,139.22795 37.088206,133.31769 " />
      <path
         sodipodi:type="inkscape:box3dside"
         id="path318"
         style="fill:#353564;fill-rule:evenodd;stroke:none;stroke-linejoin:round"
         inkscape:box3dsidetype="6"
         d="m 26.272114,132.368 v 6.27996 l 10.816092,0.57999 v -5.91026 z"
         points="26.272114,138.64796 37.088206,139.22795 37.088206,133.31769 26.272114,132.368 " />
      <path
         sodipodi:type="inkscape:box3dside"
         id="path320"
         style="fill:#4d4d9f;fill-rule:evenodd;stroke:none;stroke-linejoin:round"
         inkscape:box3dsidetype="5"
         d="m 26.272114,132.368 6.283655,-3.85838 12.76491,1.43806 -8.232473,3.37001 z"
         points="32.555769,128.50962 45.320679,129.94768 37.088206,133.31769 26.272114,132.368 " />
      <path
         sodipodi:type="inkscape:box3dside"
         id="path326"
         style="fill:#afafde;fill-rule:evenodd;stroke:none;stroke-linejoin:round"
         inkscape:box3dsidetype="13"
         d="m 26.272114,138.64796 6.283655,-2.35637 12.76491,0.87824 -8.232473,2.05812 z"
         points="32.555769,136.29159 45.320679,137.16983 37.088206,139.22795 26.272114,138.64796 " />
      <path
         sodipodi:type="inkscape:box3dside"
         id="path324"
         style="fill:#d7d7ff;fill-rule:evenodd;stroke:none;stroke-linejoin:round"
         inkscape:box3dsidetype="14"
         d="m 32.555769,128.50962 v 7.78197 l 12.76491,0.87824 v -7.22215 z"
         points="32.555769,136.29159 45.320679,137.16983 45.320679,129.94768 32.555769,128.50962 " />
      <path
         sodipodi:type="inkscape:box3dside"
         id="path322"
         style="fill:#8686bf;fill-rule:evenodd;stroke:none;stroke-linejoin:round"
         inkscape:box3dsidetype="3"
         d="m 26.272114,132.368 6.283655,-3.85838 v 7.78197 l -6.283655,2.35637 z"
         points="32.555769,128.50962 32.555769,136.29159 26.272114,138.64796 26.272114,132.368 " />
    </g>
    <g
       sodipodi:type="inkscape:box3d"
       id="g330"
       style="fill-rule:evenodd;stroke:none;stroke-linejoin:round"
       inkscape:perspectiveID="#perspective78"
       inkscape:corner0="1.3168233 : 0.075750012 : 0 : 1"
       inkscape:corner7="0.59505755 : 0.01040803 : 0.25 : 1">
      <path
         sodipodi:type="inkscape:box3dside"
         id="path342"
         style="fill:#e9e9ff;fill-rule:evenodd;stroke:none;stroke-linejoin:round"
         inkscape:box3dsidetype="11"
         d="m 61.359893,138.27335 24.0033,-4.00055 v 35.4146 l -24.0033,-5.95769 z"
         points="85.363193,134.2728 85.363193,169.6874 61.359893,163.72971 61.359893,138.27335 " />
      <path
         sodipodi:type="inkscape:box3dside"
         id="path332"
         style="fill:#353564;fill-rule:evenodd;stroke:none;stroke-linejoin:round"
         inkscape:box3dsidetype="6"
         d="m 45.320678,137.16983 v 28.20326 l 16.039215,-1.64338 v -25.45636 z"
         points="45.320678,165.37309 61.359893,163.72971 61.359893,138.27335 45.320678,137.16983 " />
      <path
         sodipodi:type="inkscape:box3dside"
         id="path340"
         style="fill:#afafde;fill-rule:evenodd;stroke:none;stroke-linejoin:round"
         inkscape:box3dsidetype="13"
         d="m 45.320678,165.37309 20.507669,7.6351 19.534846,-3.32079 -24.0033,-5.95769 z"
         points="65.828347,173.00819 85.363193,169.6874 61.359893,163.72971 45.320678,165.37309 " />
      <path
         sodipodi:type="inkscape:box3dside"
         id="path334"
         style="fill:#4d4d9f;fill-rule:evenodd;stroke:none;stroke-linejoin:round"
         inkscape:box3dsidetype="5"
         d="m 45.320678,137.16983 20.507669,-5.12692 19.534846,2.22989 -24.0033,4.00055 z"
         points="65.828347,132.04291 85.363193,134.2728 61.359893,138.27335 45.320678,137.16983 " />
      <path
         sodipodi:type="inkscape:box3dside"
         id="path338"
         style="fill:#d7d7ff;fill-rule:evenodd;stroke:none;stroke-linejoin:round"
         inkscape:box3dsidetype="14"
         d="m 65.828347,132.04291 v 40.96528 l 19.534846,-3.32079 v -35.4146 z"
         points="65.828347,173.00819 85.363193,169.6874 85.363193,134.2728 65.828347,132.04291 " />
      <path
         sodipodi:type="inkscape:box3dside"
         id="path336"
         style="fill:#8686bf;fill-rule:evenodd;stroke:none;stroke-linejoin:round"
         inkscape:box3dsidetype="3"
         d="m 45.320678,137.16983 20.507669,-5.12692 v 40.96528 l -20.507669,-7.6351 z"
         points="65.828347,132.04291 65.828347,173.00819 45.320678,165.37309 45.320678,137.16983 " />
    </g>
    <g
       sodipodi:type="inkscape:box3d"
       id="g344"
       style="fill-rule:evenodd;stroke:none;stroke-linejoin:round"
       inkscape:perspectiveID="#perspective78"
       inkscape:corner0="1.1130849 : 0.043465526 : 0 : 1"
       inkscape:corner7="-0.089908969 : 0.033905943 : 0.25 : 1">
      <path
         sodipodi:type="inkscape:box3dside"
         id="path356"
         style="fill:#e9e9ff;fill-rule:evenodd;stroke:none;stroke-linejoin:round"
         inkscape:box3dsidetype="11"
         d="m 66.650167,151.05365 69.115043,2.64808 v 8.24037 l -69.115043,-6.84307 z"
         points="135.76521,153.70173 135.76521,161.9421 66.650167,155.09903 66.650167,151.05365 " />
      <path
         sodipodi:type="inkscape:box3dside"
         id="path346"
         style="fill:#353564;fill-rule:evenodd;stroke:none;stroke-linejoin:round"
         inkscape:box3dsidetype="6"
         d="m 49.690385,151.35577 v 4.52399 l 16.959782,-0.78073 v -4.04538 z"
         points="49.690385,155.87976 66.650167,155.09903 66.650167,151.05365 49.690385,151.35577 " />
      <path
         sodipodi:type="inkscape:box3dside"
         id="path354"
         style="fill:#afafde;fill-rule:evenodd;stroke:none;stroke-linejoin:round"
         inkscape:box3dsidetype="13"
         d="m 49.690385,155.87976 65.682695,9.75486 20.39213,-3.69252 -69.115043,-6.84307 z"
         points="115.37308,165.63462 135.76521,161.9421 66.650167,155.09903 49.690385,155.87976 " />
      <path
         sodipodi:type="inkscape:box3dside"
         id="path348"
         style="fill:#4d4d9f;fill-rule:evenodd;stroke:none;stroke-linejoin:round"
         inkscape:box3dsidetype="5"
         d="m 49.690385,151.35577 65.682695,3.77486 20.39213,-1.4289 -69.115043,-2.64808 z"
         points="115.37308,155.13063 135.76521,153.70173 66.650167,151.05365 49.690385,151.35577 " />
      <path
         sodipodi:type="inkscape:box3dside"
         id="path352"
         style="fill:#d7d7ff;fill-rule:evenodd;stroke:none;stroke-linejoin:round"
         inkscape:box3dsidetype="14"
         d="m 115.37308,155.13063 v 10.50399 l 20.39213,-3.69252 v -8.24037 z"
         points="115.37308,165.63462 135.76521,161.9421 135.76521,153.70173 115.37308,155.13063 " />
      <path
         sodipodi:type="inkscape:box3dside"
         id="path350"
         style="fill:#8686bf;fill-rule:evenodd;stroke:none;stroke-linejoin:round"
         inkscape:box3dsidetype="3"
         d="m 49.690385,151.35577 65.682695,3.77486 v 10.50399 l -65.682695,-9.75486 z"
         points="115.37308,155.13063 115.37308,165.63462 49.690385,155.87976 49.690385,151.35577 " />
    </g>
  </g>
</svg>
